<svg width="16" height="16" viewBox="0 0 16 16" fill="none" xmlns="http://www.w3.org/2000/svg">
<mask id="mask0_103_107" style="mask-type:alpha" maskUnits="userSpaceOnUse" x="0" y="0" width="16" height="16">
<rect width="16" height="16" fill="white" fill-opacity="0.5"/>
</mask>
<g mask="url(#mask0_103_107)">
<path d="M6.71541 13.4987C5.62481 13.2192 4.73294 12.6329 4.03978 11.7397C3.34661 10.8466 3.00003 9.82223 3.00003 8.66667C3.00003 8.11197 3.09063 7.57522 3.27183 7.05642C3.45303 6.53762 3.70944 6.05557 4.04106 5.61027C4.13336 5.48464 4.25879 5.41733 4.41733 5.40835C4.57587 5.39938 4.71583 5.45557 4.8372 5.57694C4.92951 5.66925 4.97737 5.77908 4.98078 5.90642C4.9842 6.03377 4.94531 6.15598 4.86411 6.27307C4.59404 6.61068 4.39361 6.98526 4.26283 7.39679C4.13206 7.80833 4.06668 8.23163 4.06668 8.66667C4.06668 9.55044 4.32395 10.3383 4.83848 11.0301C5.35301 11.722 6.02524 12.1906 6.85515 12.4359C6.97651 12.4786 7.081 12.5573 7.16861 12.6718C7.25621 12.7863 7.30001 12.9043 7.30001 13.0256C7.30001 13.1923 7.24254 13.3235 7.12758 13.4192C7.01262 13.5149 6.87524 13.5414 6.71541 13.4987ZM9.28461 13.5115C9.12479 13.5543 8.9874 13.5288 8.87245 13.4352C8.75749 13.3417 8.70001 13.2115 8.70001 13.0449C8.70001 12.9192 8.74381 12.7991 8.83141 12.6846C8.91902 12.5701 9.02351 12.4893 9.14488 12.4423C9.97052 12.1799 10.6417 11.7049 11.1583 11.0173C11.675 10.3297 11.9333 9.54616 11.9333 8.66667C11.9333 7.56667 11.5556 6.63612 10.8 5.87501C10.0445 5.11389 9.12224 4.73334 8.03335 4.73334H7.83076L8.31285 5.21541C8.42054 5.32309 8.47438 5.44574 8.47438 5.58335C8.47438 5.72095 8.42054 5.8436 8.31285 5.95129C8.19405 6.07009 8.06584 6.12949 7.92823 6.12949C7.79063 6.12949 7.66799 6.07009 7.5603 5.95129L6.24748 4.65514C6.17398 4.58164 6.12163 4.50749 6.09043 4.4327C6.05923 4.35792 6.04363 4.28035 6.04363 4.20002C6.04363 4.11968 6.05923 4.04211 6.09043 3.96732C6.12163 3.89254 6.17398 3.8184 6.24748 3.74489L7.5603 2.43207C7.66799 2.32438 7.79063 2.27054 7.92823 2.27054C8.06584 2.27054 8.19405 2.32438 8.31285 2.43207C8.42054 2.55087 8.47438 2.67908 8.47438 2.81669C8.47438 2.95429 8.42054 3.07693 8.31285 3.18462L7.83076 3.66669H8.03335C9.42821 3.66669 10.6047 4.15131 11.5628 5.12054C12.5209 6.08976 13 7.27181 13 8.66667C13 9.82223 12.6523 10.8444 11.957 11.7333C11.2617 12.6222 10.3709 13.2149 9.28461 13.5115Z" fill="white" fill-opacity="0.6"/>
</g>
</svg>
